<?xml version="1.0" encoding="utf-8"?>
<!-- Generator: Adobe Illustrator 25.4.1, SVG Export Plug-In . SVG Version: 6.00 Build 0)  -->
<svg version="1.1" id="Ebene_1" xmlns="http://www.w3.org/2000/svg" xmlns:xlink="http://www.w3.org/1999/xlink" x="0px" y="0px"
	 viewBox="0 0 1920 1080" style="enable-background:new 0 0 1920 1080;" xml:space="preserve">
<style type="text/css">
	.st0{fill:none;stroke:url(#SVGID_1_);stroke-width:2.9224;stroke-miterlimit:10;}
	
		.st1{fill:none;stroke:url(#SVGID_00000031181250192422863740000012252034886531097731_);stroke-width:2.9224;stroke-miterlimit:10;}
	
		.st2{fill:none;stroke:url(#SVGID_00000183238841512398991700000000230714674581205637_);stroke-width:2.9224;stroke-miterlimit:10;}
	
		.st3{fill:none;stroke:url(#SVGID_00000072240592486660011110000012452214042247269784_);stroke-width:2.8991;stroke-miterlimit:10;}
	
		.st4{fill:none;stroke:url(#SVGID_00000147904232876568798710000014419434708500853135_);stroke-width:2.8991;stroke-miterlimit:10;}
	
		.st5{fill:none;stroke:url(#SVGID_00000010285469998290084610000016008079609210413961_);stroke-width:2.8991;stroke-miterlimit:10;}
	
		.st6{fill:none;stroke:url(#SVGID_00000020389725468576321100000015600500283001076353_);stroke-width:2.8991;stroke-miterlimit:10;}
	
		.st7{fill:none;stroke:url(#SVGID_00000004507893313785888300000015898413446830712196_);stroke-width:2.8991;stroke-miterlimit:10;}
	
		.st8{fill:none;stroke:url(#SVGID_00000035526662625226994600000001607384507564520616_);stroke-width:2.8991;stroke-miterlimit:10;}
	
		.st9{fill:none;stroke:url(#SVGID_00000025426798402663253700000011714329879276614306_);stroke-width:2.8991;stroke-miterlimit:10;}
	
		.st10{fill:none;stroke:url(#SVGID_00000082366207964138708520000004761190505954175632_);stroke-width:2.8991;stroke-miterlimit:10;}
	
		.st11{fill:none;stroke:url(#SVGID_00000057836708603803373500000011341611873416907404_);stroke-width:2.8991;stroke-miterlimit:10;}
	
		.st12{fill:none;stroke:url(#SVGID_00000008838138737135043400000000164170226100856989_);stroke-width:2.9224;stroke-miterlimit:10;}
	
		.st13{fill:none;stroke:url(#SVGID_00000067233810455905378400000016030945377469775525_);stroke-width:2.9224;stroke-miterlimit:10;}
	
		.st14{fill:none;stroke:url(#SVGID_00000154408085836077848520000017341883200041277332_);stroke-width:2.8991;stroke-miterlimit:10;}
	
		.st15{fill:none;stroke:url(#SVGID_00000056415096456752198770000007422293248280384931_);stroke-width:2.8991;stroke-miterlimit:10;}
	
		.st16{fill:none;stroke:url(#SVGID_00000068646599996290528170000002710992173287887282_);stroke-width:2.8991;stroke-miterlimit:10;}
	
		.st17{fill:none;stroke:url(#SVGID_00000142864185457597291680000017266011235492349067_);stroke-width:2.8991;stroke-miterlimit:10;}
	
		.st18{fill:none;stroke:url(#SVGID_00000086661821179092570100000004725811996236201131_);stroke-width:2.8991;stroke-miterlimit:10;}
	
		.st19{fill:none;stroke:url(#SVGID_00000143598148022850236260000012005332641521732767_);stroke-width:2.8991;stroke-miterlimit:10;}
	
		.st20{fill:none;stroke:url(#SVGID_00000174564889206826938250000008473736803573827239_);stroke-width:2.8991;stroke-miterlimit:10;}
	
		.st21{fill:none;stroke:url(#SVGID_00000097496702276564591600000017142525136756471455_);stroke-width:2.8991;stroke-miterlimit:10;}
	
		.st22{fill:none;stroke:url(#SVGID_00000144324263049619942830000018117783576988306057_);stroke-width:2.8991;stroke-miterlimit:10;}
	
		.st23{fill:none;stroke:url(#SVGID_00000145761832609320045400000000931015677048882097_);stroke-width:2.8991;stroke-miterlimit:10;}
	
		.st24{fill:none;stroke:url(#SVGID_00000168820553088002121650000002257891304884196272_);stroke-width:2.8991;stroke-miterlimit:10;}
	
		.st25{fill:none;stroke:url(#SVGID_00000145764375193131361290000001206072969789786522_);stroke-width:2.8991;stroke-miterlimit:10;}
	
		.st26{fill:none;stroke:url(#SVGID_00000111900572422269715640000016129670694604855442_);stroke-width:2.8991;stroke-miterlimit:10;}
	
		.st27{fill:none;stroke:url(#SVGID_00000042005374833329847910000009186933299919004838_);stroke-width:2.8991;stroke-miterlimit:10;}
	
		.st28{fill:none;stroke:url(#SVGID_00000110445610452824197600000011784210303524132789_);stroke-width:2.8991;stroke-miterlimit:10;}
	
		.st29{fill:none;stroke:url(#SVGID_00000153698038098896892020000018302573915104690089_);stroke-width:2.8991;stroke-miterlimit:10;}
	
		.st30{fill:none;stroke:url(#SVGID_00000088854064909220964250000016009432206418998430_);stroke-width:2.8991;stroke-miterlimit:10;}
	
		.st31{fill:none;stroke:url(#SVGID_00000113316602788316106240000006205729389321650061_);stroke-width:2.8991;stroke-miterlimit:10;}
	.st32{opacity:0.7;}
	
		.st33{fill:none;stroke:url(#SVGID_00000132083266925178163690000001385081507053532804_);stroke-width:2.8991;stroke-miterlimit:10;}
	
		.st34{fill:none;stroke:url(#SVGID_00000073696933417666816490000014273941483385407391_);stroke-width:2.8991;stroke-miterlimit:10;}
	
		.st35{fill:none;stroke:url(#SVGID_00000125563486578112296910000008696173065247599513_);stroke-width:2.8991;stroke-miterlimit:10;}
	
		.st36{fill:none;stroke:url(#SVGID_00000062168217336244925370000012028863679340267700_);stroke-width:2.8991;stroke-miterlimit:10;}
	
		.st37{fill:none;stroke:url(#SVGID_00000038403866723932816970000002028964372214860468_);stroke-width:2.8991;stroke-miterlimit:10;}
	
		.st38{fill:none;stroke:url(#SVGID_00000052077850364048298990000000510727918098595739_);stroke-width:2.8991;stroke-miterlimit:10;}
	
		.st39{fill:none;stroke:url(#SVGID_00000153664344706141505380000011359839918116230282_);stroke-width:2.8991;stroke-miterlimit:10;}
	
		.st40{fill:none;stroke:url(#SVGID_00000156586852942838752310000001511197352410459552_);stroke-width:2.8991;stroke-miterlimit:10;}
	
		.st41{fill:none;stroke:url(#SVGID_00000064331149263028066360000005551716485294693520_);stroke-width:2.8991;stroke-miterlimit:10;}
</style>
<g>
	<path d="M841.51,474.13v112.65h-10.32v-15.79c-6.53,10.78-17.61,16.55-30.82,16.55c-22.77,0-39.78-16.55-39.78-40.69
		c0-24.14,17-40.54,39.78-40.54c12.75,0,23.68,5.47,30.37,15.79v-47.98H841.51z M830.89,546.85c0-18.67-12.75-31.12-29.61-31.12
		c-17,0-29.76,12.45-29.76,31.12c0,18.67,12.75,31.12,29.76,31.12C818.13,577.98,830.89,565.53,830.89,546.85z"/>
	<path d="M937.31,550.19h-66.8c1.21,16.7,13.97,27.78,31.43,27.78c9.72,0,18.37-3.49,24.44-10.48l6.07,6.98
		c-7.14,8.5-18.22,13.06-30.82,13.06c-24.9,0-41.9-17-41.9-40.69c0-23.68,16.55-40.54,39.02-40.54s38.72,16.55,38.72,40.54
		C937.47,547.76,937.31,548.98,937.31,550.19z M870.51,542.15h56.63c-1.37-15.64-12.75-26.57-28.39-26.57
		C883.26,515.58,871.88,526.51,870.51,542.15z"/>
	<path d="M955.68,474.13h10.78v112.65h-10.78V474.13z"/>
	<path d="M1038.12,581.92c-4.25,3.8-10.63,5.62-16.85,5.62c-15.03,0-23.38-8.5-23.38-23.23v-48.28h-14.27v-9.11h14.27v-17.46h10.78
		v17.46h24.29v9.11h-24.29v47.67c0,9.41,4.86,14.58,13.82,14.58c4.4,0,8.81-1.37,11.84-4.1L1038.12,581.92z"/>
	<path d="M1117.22,537.29v49.5h-10.32v-12.45c-4.86,8.2-14.27,13.21-27.48,13.21c-18.07,0-29.15-9.41-29.15-23.23
		c0-12.3,7.89-22.62,30.82-22.62h25.35v-4.86c0-13.66-7.74-21.1-22.62-21.1c-10.32,0-20.04,3.64-26.57,9.41l-4.86-8.05
		c8.05-6.83,19.89-10.78,32.49-10.78C1105.53,506.32,1117.22,516.64,1117.22,537.29z M1106.44,562.79v-13.06h-25.05
		c-15.49,0-20.5,6.07-20.5,14.27c0,9.26,7.44,15.03,20.19,15.03C1093.23,579.04,1102.19,573.27,1106.44,562.79z"/>
</g>
<g>
	<path d="M1183.69,586.77h-34.53c-4.83,0-8.75-3.92-8.75-8.75v-55.18c0-4.83,3.92-8.75,8.75-8.75s8.75,3.92,8.75,8.75v46.43h25.16
		c0.28-0.02,0.57-0.03,0.86-0.02h0.1c21.23,0,38.5-17.27,38.5-38.5c0-21.23-17.27-38.5-38.5-38.5h-0.34c-0.9,0-1.76-0.13-2.57-0.38
		h-31.96c-4.83,0-8.75-3.92-8.75-8.75c0-4.83,3.92-8.75,8.75-8.75h34.53c0.95,0,1.87,0.15,2.73,0.43
		c29.78,1.26,53.62,25.88,53.62,55.96c0,30.8-24.99,55.87-55.75,56.01C1184.09,586.76,1183.89,586.77,1183.69,586.77z"/>
</g>
<g>
	<path d="M1340.72,586.78h-87.31c-4.91,0-8.89-3.98-8.89-8.89c0-4.91,3.98-8.89,8.89-8.89h72.04l-38.46-67.65l-10.92,19.2
		c-2.43,4.27-7.85,5.76-12.12,3.33c-4.27-2.43-5.76-7.85-3.33-12.12l18.64-32.79c1.58-2.78,4.53-4.49,7.73-4.49l0,0
		c3.2,0,6.15,1.72,7.73,4.49l53.73,94.51c1.56,2.75,1.55,6.13-0.04,8.86C1346.81,585.1,1343.88,586.78,1340.72,586.78z"/>
</g>
<g>
	<path d="M1380.23,586.56c-4.38,0-8.2-3.23-8.81-7.69c-0.67-4.87,2.74-9.36,7.61-10.03c18.91-2.6,33.17-18.97,33.17-38.09
		c0-21.2-17.24-38.45-38.44-38.45c-11.11,0-21.68,4.82-29,13.22c-3.23,3.71-8.85,4.1-12.56,0.87c-3.71-3.23-4.1-8.85-0.87-12.56
		c10.7-12.29,26.16-19.33,42.43-19.33c31.02,0,56.25,25.24,56.25,56.25c0,27.97-20.87,51.93-48.55,55.73
		C1381.04,586.53,1380.63,586.56,1380.23,586.56z"/>
</g>
<g>
	<g>
		<linearGradient id="SVGID_1_" gradientUnits="userSpaceOnUse" x1="442.7236" y1="438.1422" x2="442.7236" y2="438.1422">
			<stop  offset="0.1324" style="stop-color:#00FFFF"/>
			<stop  offset="0.8573" style="stop-color:#0F2AA5"/>
		</linearGradient>
		<path class="st0" d="M442.72,438.14"/>
		
			<linearGradient id="SVGID_00000106137254520749708890000002311061478784627369_" gradientUnits="userSpaceOnUse" x1="418.1297" y1="460.931" x2="418.1297" y2="460.931">
			<stop  offset="0.1324" style="stop-color:#00FFFF"/>
			<stop  offset="0.8573" style="stop-color:#0F2AA5"/>
		</linearGradient>
		
			<path style="fill:none;stroke:url(#SVGID_00000106137254520749708890000002311061478784627369_);stroke-width:2.9224;stroke-miterlimit:10;" d="
			M418.13,460.93"/>
		
			<linearGradient id="SVGID_00000031196862699606016040000002649898516884895659_" gradientUnits="userSpaceOnUse" x1="405.8327" y1="472.3254" x2="405.8327" y2="472.3254">
			<stop  offset="0.1324" style="stop-color:#00FFFF"/>
			<stop  offset="0.8573" style="stop-color:#0F2AA5"/>
		</linearGradient>
		
			<path style="fill:none;stroke:url(#SVGID_00000031196862699606016040000002649898516884895659_);stroke-width:2.9224;stroke-miterlimit:10;" d="
			M405.83,472.33"/>
		<g>
			
				<linearGradient id="SVGID_00000144333044673840431240000011743723923466433456_" gradientUnits="userSpaceOnUse" x1="532.2328" y1="393.1559" x2="671.2587" y2="393.1559">
				<stop  offset="0.1324" style="stop-color:#00FFFF"/>
				<stop  offset="0.8573" style="stop-color:#0F2AA5"/>
			</linearGradient>
			
				<path style="fill:none;stroke:url(#SVGID_00000144333044673840431240000011743723923466433456_);stroke-width:2.8991;stroke-miterlimit:10;" d="
				M670.38,418.38c-2.94-2.25-5.75-3.47-8.94-4.63c0,0-23.65-10.67-58.82-23.53s-60.13-19.96-60.13-19.96
				c-3.39-1.1-6.79-1.77-10.15-2.03"/>
			
				<linearGradient id="SVGID_00000180364104599442157370000004963204075874345121_" gradientUnits="userSpaceOnUse" x1="519.256" y1="406.3447" x2="674.7189" y2="406.3447">
				<stop  offset="0.1324" style="stop-color:#00FFFF"/>
				<stop  offset="0.8573" style="stop-color:#0F2AA5"/>
			</linearGradient>
			
				<path style="fill:none;stroke:url(#SVGID_00000180364104599442157370000004963204075874345121_);stroke-width:2.8991;stroke-miterlimit:10;" d="
				M673.76,434.76c-3.41-2.99-7.37-5.74-11.86-8.19c-2.75-1.49-27.04-12.89-63.05-26.06c-36.01-13.17-61.94-20.13-65.03-20.77
				c-5.07-1.04-9.94-1.51-14.54-1.45"/>
			
				<linearGradient id="SVGID_00000147931471703111089190000001657614864863396739_" gradientUnits="userSpaceOnUse" x1="505.2573" y1="419.3185" x2="679.2125" y2="419.3185">
				<stop  offset="0.1324" style="stop-color:#00FFFF"/>
				<stop  offset="0.8573" style="stop-color:#0F2AA5"/>
			</linearGradient>
			
				<path style="fill:none;stroke:url(#SVGID_00000147931471703111089190000001657614864863396739_);stroke-width:2.8991;stroke-miterlimit:10;" d="
				M678.2,451.24c-4.19-4.13-9.67-8.32-15.83-11.85c-5.43-3.11-30.44-15.11-67.29-28.58c-36.85-13.47-63.73-20.45-69.93-21.58
				c-7.08-1.29-13.86-1.67-19.79-1.26"/>
			
				<linearGradient id="SVGID_00000093886099715764108610000016024120696950492836_" gradientUnits="userSpaceOnUse" x1="491.8446" y1="432.1634" x2="683.1998" y2="432.1634">
				<stop  offset="0.1324" style="stop-color:#00FFFF"/>
				<stop  offset="0.8573" style="stop-color:#0F2AA5"/>
			</linearGradient>
			
				<path style="fill:none;stroke:url(#SVGID_00000093886099715764108610000016024120696950492836_);stroke-width:2.8991;stroke-miterlimit:10;" d="
				M682.14,467.47c-4.82-5.2-11.46-10.59-19.31-15.27c-8.06-4.81-33.83-17.32-71.52-31.1c-37.69-13.78-65.51-20.84-74.83-22.38
				c-9.19-1.52-17.34-1.75-24.46-0.93"/>
			
				<linearGradient id="SVGID_00000107590882781331061060000009955684357693469604_" gradientUnits="userSpaceOnUse" x1="479.2041" y1="444.8258" x2="686.6674" y2="444.8258">
				<stop  offset="0.1324" style="stop-color:#00FFFF"/>
				<stop  offset="0.8573" style="stop-color:#0F2AA5"/>
			</linearGradient>
			
				<path style="fill:none;stroke:url(#SVGID_00000107590882781331061060000009955684357693469604_);stroke-width:2.8991;stroke-miterlimit:10;" d="
				M685.57,483.34c-5.34-6.25-12.66-12.41-22.28-18.32c-10.66-6.55-37.23-19.54-75.76-33.63c-38.52-14.09-67.28-21.3-79.73-23.19
				c-10.96-1.67-20.38-1.77-28.39-0.64"/>
			
				<linearGradient id="SVGID_00000152253988680508342800000011375862806918228392_" gradientUnits="userSpaceOnUse" x1="461.4676" y1="459.0715" x2="692.5893" y2="459.0715">
				<stop  offset="0.1324" style="stop-color:#00FFFF"/>
				<stop  offset="0.8573" style="stop-color:#0F2AA5"/>
			</linearGradient>
			
				<path style="fill:none;stroke:url(#SVGID_00000152253988680508342800000011375862806918228392_);stroke-width:2.8991;stroke-miterlimit:10;" d="
				M691.41,502.42c-5.78-8.09-14.89-16.55-27.66-24.58c-13.24-8.33-40.62-21.76-79.99-36.15c-39.36-14.39-69.04-21.79-84.63-24
				c-15.17-2.15-27.61-1.64-37.32,0.7"/>
			
				<linearGradient id="SVGID_00000165953960849428295540000001451949779583533707_" gradientUnits="userSpaceOnUse" x1="450.8712" y1="470.7392" x2="694.4276" y2="470.7392">
				<stop  offset="0.1324" style="stop-color:#00FFFF"/>
				<stop  offset="0.8573" style="stop-color:#0F2AA5"/>
			</linearGradient>
			
				<path style="fill:none;stroke:url(#SVGID_00000165953960849428295540000001451949779583533707_);stroke-width:2.8991;stroke-miterlimit:10;" d="
				M693.26,516.36c-6.11-8.35-15.57-17.05-29.05-25.69c-15.8-10.13-44.02-23.97-84.23-38.68c-40.2-14.7-70.8-22.32-89.53-24.81
				c-16.21-2.16-29.1-1.87-39.25,0.48"/>
			
				<linearGradient id="SVGID_00000055685500731638473200000015783293011653575097_" gradientUnits="userSpaceOnUse" x1="437.8873" y1="483.3909" x2="697.8004" y2="483.3909">
				<stop  offset="0.1324" style="stop-color:#00FFFF"/>
				<stop  offset="0.8573" style="stop-color:#0F2AA5"/>
			</linearGradient>
			
				<path style="fill:none;stroke:url(#SVGID_00000055685500731638473200000015783293011653575097_);stroke-width:2.8991;stroke-miterlimit:10;" d="
				M696.61,532.41c-6.38-9.26-16.61-18.95-31.94-28.93c-18.35-11.95-47.41-26.19-88.46-41.2c-41.04-15.01-72.56-22.86-94.43-25.62
				c-18.27-2.3-32.64-2.28-43.53,0.48"/>
			
				<linearGradient id="SVGID_00000106127401572436431870000016151681488487782026_" gradientUnits="userSpaceOnUse" x1="424.7781" y1="495.82" x2="700.8388" y2="495.82">
				<stop  offset="0.1324" style="stop-color:#00FFFF"/>
				<stop  offset="0.8573" style="stop-color:#0F2AA5"/>
			</linearGradient>
			
				<path style="fill:none;stroke:url(#SVGID_00000106127401572436431870000016151681488487782026_);stroke-width:2.8991;stroke-miterlimit:10;" d="
				M699.63,548.01c-14.88-22.34-51.48-47.74-127.2-75.43c-76.58-28-121.5-32.5-147.26-25.2"/>
		</g>
		
			<linearGradient id="SVGID_00000018943035224411831410000001873801898529073045_" gradientUnits="userSpaceOnUse" x1="691.0837" y1="513.7382" x2="691.0837" y2="513.7382">
			<stop  offset="0.1465" style="stop-color:#FFFFFF;stop-opacity:0"/>
			<stop  offset="0.288" style="stop-color:#FFFFFF;stop-opacity:0.9"/>
			<stop  offset="0.45" style="stop-color:#FFFFFF;stop-opacity:0.9"/>
			<stop  offset="0.7548" style="stop-color:#FFFFFF;stop-opacity:0"/>
			<stop  offset="0.8998" style="stop-color:#FFFFFF;stop-opacity:0"/>
		</linearGradient>
		
			<path style="fill:none;stroke:url(#SVGID_00000018943035224411831410000001873801898529073045_);stroke-width:2.9224;stroke-miterlimit:10;" d="
			M691.08,513.74"/>
		
			<linearGradient id="SVGID_00000122684860048071232960000002522466223092337586_" gradientUnits="userSpaceOnUse" x1="699.4868" y1="580.4447" x2="699.4868" y2="580.4447">
			<stop  offset="0.1465" style="stop-color:#FFFFFF;stop-opacity:0"/>
			<stop  offset="0.288" style="stop-color:#FFFFFF;stop-opacity:0.9"/>
			<stop  offset="0.45" style="stop-color:#FFFFFF;stop-opacity:0.9"/>
			<stop  offset="0.7548" style="stop-color:#FFFFFF;stop-opacity:0"/>
			<stop  offset="0.8998" style="stop-color:#FFFFFF;stop-opacity:0"/>
		</linearGradient>
		
			<path style="fill:none;stroke:url(#SVGID_00000122684860048071232960000002522466223092337586_);stroke-width:2.9224;stroke-miterlimit:10;" d="
			M699.49,580.44"/>
		<g>
			
				<linearGradient id="SVGID_00000115515475967458635060000010482933114409582472_" gradientUnits="userSpaceOnUse" x1="573.5798" y1="700.4125" x2="713.8632" y2="560.1292">
				<stop  offset="0.071" style="stop-color:#3C7CE1"/>
				<stop  offset="0.1304" style="stop-color:#3570D8"/>
				<stop  offset="0.3033" style="stop-color:#2552C2"/>
				<stop  offset="0.4739" style="stop-color:#193DB2"/>
				<stop  offset="0.6398" style="stop-color:#1230A8"/>
				<stop  offset="0.7954" style="stop-color:#102CA5"/>
			</linearGradient>
			
				<path style="fill:none;stroke:url(#SVGID_00000115515475967458635060000010482933114409582472_);stroke-width:2.8991;stroke-miterlimit:10;" d="
				M569.53,694.85c9.57,0.48,19.51-2.46,27.78-9.37c0,0,21.06-15.14,49.79-39.17c28.72-24.03,47.35-42.09,47.35-42.09
				c17.28-14.46,17.68-40.76,5.04-56.42"/>
			
				<linearGradient id="SVGID_00000120553436194352933270000007814232675089793971_" gradientUnits="userSpaceOnUse" x1="561.5349" y1="695.1379" x2="711.4777" y2="545.1951">
				<stop  offset="0.071" style="stop-color:#3C7CE1"/>
				<stop  offset="0.1304" style="stop-color:#3570D8"/>
				<stop  offset="0.3033" style="stop-color:#2552C2"/>
				<stop  offset="0.4739" style="stop-color:#193DB2"/>
				<stop  offset="0.6398" style="stop-color:#1230A8"/>
				<stop  offset="0.7954" style="stop-color:#102CA5"/>
			</linearGradient>
			
				<path style="fill:none;stroke:url(#SVGID_00000120553436194352933270000007814232675089793971_);stroke-width:2.8991;stroke-miterlimit:10;" d="
				M556.52,688.68c9.34-0.05,19.51-3.06,29.59-9.27c2.64-1.63,24.61-16.96,53.96-41.52c29.47-24.65,48.49-43.61,50.57-45.93
				c17.98-20.09,19.24-43.96,5.88-59.68"/>
			
				<linearGradient id="SVGID_00000053527023920975805680000002565210301440966050_" gradientUnits="userSpaceOnUse" x1="551.0853" y1="688.0206" x2="709.0336" y2="530.0724">
				<stop  offset="0.071" style="stop-color:#3C7CE1"/>
				<stop  offset="0.1304" style="stop-color:#3570D8"/>
				<stop  offset="0.3033" style="stop-color:#2552C2"/>
				<stop  offset="0.4739" style="stop-color:#193DB2"/>
				<stop  offset="0.6398" style="stop-color:#1230A8"/>
				<stop  offset="0.7954" style="stop-color:#102CA5"/>
			</linearGradient>
			
				<path style="fill:none;stroke:url(#SVGID_00000053527023920975805680000002565210301440966050_);stroke-width:2.8991;stroke-miterlimit:10;" d="
				M547.42,683.07c8.49-0.89,17.75-4.02,27.49-9.73c5.36-3.14,28.16-18.78,58.14-43.86c30.21-25.27,49.73-45.04,53.79-49.77
				c20.46-23.89,20.4-47.68,6.32-63.47"/>
			
				<linearGradient id="SVGID_00000016788959439937982870000009759464015982164406_" gradientUnits="userSpaceOnUse" x1="539.2408" y1="683.9797" x2="707.1497" y2="516.0709">
				<stop  offset="0.071" style="stop-color:#3C7CE1"/>
				<stop  offset="0.1304" style="stop-color:#3570D8"/>
				<stop  offset="0.3033" style="stop-color:#2552C2"/>
				<stop  offset="0.4739" style="stop-color:#193DB2"/>
				<stop  offset="0.6398" style="stop-color:#1230A8"/>
				<stop  offset="0.7954" style="stop-color:#102CA5"/>
			</linearGradient>
			
				<path style="fill:none;stroke:url(#SVGID_00000016788959439937982870000009759464015982164406_);stroke-width:2.8991;stroke-miterlimit:10;" d="
				M534.21,677.67c8.84-1.01,18.71-4.32,29.49-10.41c8.11-4.58,31.71-20.61,62.31-46.21c30.95-25.89,51.04-46.41,57-53.61
				c21.87-26.41,21.12-49.52,8.17-65.3"/>
			
				<linearGradient id="SVGID_00000149364343611297136690000011320024625507362231_" gradientUnits="userSpaceOnUse" x1="524.4839" y1="678.7664" x2="703.7646" y2="499.4858">
				<stop  offset="0.071" style="stop-color:#3C7CE1"/>
				<stop  offset="0.1304" style="stop-color:#3570D8"/>
				<stop  offset="0.3033" style="stop-color:#2552C2"/>
				<stop  offset="0.4739" style="stop-color:#193DB2"/>
				<stop  offset="0.6398" style="stop-color:#1230A8"/>
				<stop  offset="0.7954" style="stop-color:#102CA5"/>
			</linearGradient>
			
				<path style="fill:none;stroke:url(#SVGID_00000149364343611297136690000011320024625507362231_);stroke-width:2.8991;stroke-miterlimit:10;" d="
				M519.47,672.45c9.58-0.91,20.58-4.44,33.03-11.25c10.9-5.97,35.25-22.43,66.48-48.55c31.69-26.51,52.39-47.74,60.22-57.46
				c25.47-31.58,20.46-56.52,6.32-71.9"/>
			
				<linearGradient id="SVGID_00000145772262521594078770000012467388339592591263_" gradientUnits="userSpaceOnUse" x1="511.3727" y1="674.1631" x2="701.1241" y2="484.4118">
				<stop  offset="0.071" style="stop-color:#3C7CE1"/>
				<stop  offset="0.1304" style="stop-color:#3570D8"/>
				<stop  offset="0.3033" style="stop-color:#2552C2"/>
				<stop  offset="0.4739" style="stop-color:#193DB2"/>
				<stop  offset="0.6398" style="stop-color:#1230A8"/>
				<stop  offset="0.7954" style="stop-color:#102CA5"/>
			</linearGradient>
			
				<path style="fill:none;stroke:url(#SVGID_00000145772262521594078770000012467388339592591263_);stroke-width:2.8991;stroke-miterlimit:10;" d="
				M505.66,667.14c10.11-0.95,21.92-4.68,35.64-12.01c13.7-7.32,38.8-24.25,70.66-50.9c32.44-27.14,53.77-49.06,63.44-61.3
				c28-35.45,22.41-58.91,6.36-75.84"/>
			
				<linearGradient id="SVGID_00000036950672050260515210000000142297731913269380_" gradientUnits="userSpaceOnUse" x1="499.0143" y1="668.7757" x2="698.4088" y2="469.3812">
				<stop  offset="0.071" style="stop-color:#3C7CE1"/>
				<stop  offset="0.1304" style="stop-color:#3570D8"/>
				<stop  offset="0.3033" style="stop-color:#2552C2"/>
				<stop  offset="0.4739" style="stop-color:#193DB2"/>
				<stop  offset="0.6398" style="stop-color:#1230A8"/>
				<stop  offset="0.7954" style="stop-color:#102CA5"/>
			</linearGradient>
			
				<path style="fill:none;stroke:url(#SVGID_00000036950672050260515210000000142297731913269380_);stroke-width:2.8991;stroke-miterlimit:10;" d="
				M493.2,661.69c10.36-1.2,22.55-5.12,36.89-12.63c16.51-8.64,42.35-26.07,74.83-53.25c33.18-27.76,55.18-50.36,66.66-65.14
				c30.53-39.32,23.25-63.69,6.29-79.74"/>
			
				<linearGradient id="SVGID_00000154409918733406945160000013888482166541235072_" gradientUnits="userSpaceOnUse" x1="484.3327" y1="665.3368" x2="695.4001" y2="454.2694">
				<stop  offset="0.071" style="stop-color:#3C7CE1"/>
				<stop  offset="0.1304" style="stop-color:#3570D8"/>
				<stop  offset="0.3033" style="stop-color:#2552C2"/>
				<stop  offset="0.4739" style="stop-color:#193DB2"/>
				<stop  offset="0.6398" style="stop-color:#1230A8"/>
				<stop  offset="0.7954" style="stop-color:#102CA5"/>
			</linearGradient>
			
				<path style="fill:none;stroke:url(#SVGID_00000154409918733406945160000013888482166541235072_);stroke-width:2.8991;stroke-miterlimit:10;" d="
				M476.95,656.62c11.4-0.88,25.19-5.02,41.94-13.64c19.33-9.95,45.89-27.89,79.01-55.59c33.92-28.38,56.6-51.64,69.87-68.98
				c33.07-43.2,23.41-67.77,5.74-83.89"/>
			
				<linearGradient id="SVGID_00000027580125928420763570000017203726338456876707_" gradientUnits="userSpaceOnUse" x1="470.2539" y1="661.4553" x2="693.1422" y2="438.567">
				<stop  offset="0.071" style="stop-color:#3C7CE1"/>
				<stop  offset="0.1304" style="stop-color:#3570D8"/>
				<stop  offset="0.3033" style="stop-color:#2552C2"/>
				<stop  offset="0.4739" style="stop-color:#193DB2"/>
				<stop  offset="0.6398" style="stop-color:#1230A8"/>
				<stop  offset="0.7954" style="stop-color:#102CA5"/>
			</linearGradient>
			
				<path style="fill:none;stroke:url(#SVGID_00000027580125928420763570000017203726338456876707_);stroke-width:2.8991;stroke-miterlimit:10;" d="
				M461.59,651.43c26.64-1.44,66.94-20.3,129.27-72.45c116.69-97.62,104.72-141.17,79.04-160.96"/>
		</g>
		<g>
			
				<linearGradient id="SVGID_00000116207203198082124990000007076314412875324067_" gradientUnits="userSpaceOnUse" x1="426.8793" y1="653.1638" x2="426.8793" y2="445.9183">
				<stop  offset="0.0332" style="stop-color:#3C7CE1"/>
				<stop  offset="0.1315" style="stop-color:#67ADEF"/>
				<stop  offset="0.961" style="stop-color:#00FFFF"/>
			</linearGradient>
			
				<path style="fill:none;stroke:url(#SVGID_00000116207203198082124990000007076314412875324067_);stroke-width:2.8991;stroke-miterlimit:10;" d="
				M425.36,447.35c-19.99,3.59-35.22,24.09-31.31,46.46c0,0,2.58,25.81,9.03,62.7c6.45,36.89,12.78,62.05,12.78,62.05
				c3.88,22.19,26.49,35.29,45.74,32.86"/>
			
				<linearGradient id="SVGID_00000165214077561598112230000013981795512601057922_" gradientUnits="userSpaceOnUse" x1="440.2787" y1="658.3961" x2="440.2787" y2="435.6685">
				<stop  offset="0.0332" style="stop-color:#3C7CE1"/>
				<stop  offset="0.1315" style="stop-color:#67ADEF"/>
				<stop  offset="0.961" style="stop-color:#00FFFF"/>
			</linearGradient>
			
				<path style="fill:none;stroke:url(#SVGID_00000165214077561598112230000013981795512601057922_);stroke-width:2.8991;stroke-miterlimit:10;" d="
				M438.42,437.09c-20.29,4.03-34.23,22.98-33.5,49.99c0.08,3.11,2.37,29.82,8.97,67.55c6.61,37.82,13.54,63.78,14.53,66.76
				c8.51,25.67,27.04,37.74,48.55,35.23"/>
			
				<linearGradient id="SVGID_00000161611723094241521020000013260572907897842609_" gradientUnits="userSpaceOnUse" x1="453.879" y1="663.7231" x2="453.879" y2="426.1787">
				<stop  offset="0.0332" style="stop-color:#3C7CE1"/>
				<stop  offset="0.1315" style="stop-color:#67ADEF"/>
				<stop  offset="0.961" style="stop-color:#00FFFF"/>
			</linearGradient>
			
				<path style="fill:none;stroke:url(#SVGID_00000161611723094241521020000013260572907897842609_);stroke-width:2.8991;stroke-miterlimit:10;" d="
				M451.42,427.61c-20.14,3.37-35.64,19.74-35.64,52.74c0,6.22,2.16,33.82,8.9,72.4c6.77,38.75,14.17,65.55,16.28,71.46
				c10.62,29.79,30.89,40.84,52.24,37.47"/>
			
				<linearGradient id="SVGID_00000005987071464316279450000007957953575324891032_" gradientUnits="userSpaceOnUse" x1="465.5322" y1="669.0541" x2="465.5322" y2="416.9203">
				<stop  offset="0.0332" style="stop-color:#3C7CE1"/>
				<stop  offset="0.1315" style="stop-color:#67ADEF"/>
				<stop  offset="0.961" style="stop-color:#00FFFF"/>
			</linearGradient>
			
				<path style="fill:none;stroke:url(#SVGID_00000005987071464316279450000007957953575324891032_);stroke-width:2.8991;stroke-miterlimit:10;" d="
				M462.03,418.35c-19.7,3.62-34.98,21.28-35.39,55.27c-0.11,9.33,1.95,37.83,8.84,77.26c6.94,39.69,14.71,67.35,18.03,76.17
				c11.99,31.93,32.49,43.08,52.14,40.1"/>
			
				<linearGradient id="SVGID_00000166671828448281141280000011009439636811396764_" gradientUnits="userSpaceOnUse" x1="477.8498" y1="674.2831" x2="477.8498" y2="406.1105">
				<stop  offset="0.0332" style="stop-color:#3C7CE1"/>
				<stop  offset="0.1315" style="stop-color:#67ADEF"/>
				<stop  offset="0.961" style="stop-color:#00FFFF"/>
			</linearGradient>
			
				<path style="fill:none;stroke:url(#SVGID_00000166671828448281141280000011009439636811396764_);stroke-width:2.8991;stroke-miterlimit:10;" d="
				M479.5,407.55c-22.25,1.99-40.97,19.08-41.99,59.33c-0.31,12.44,1.74,41.84,8.78,82.11c7.1,40.62,15.21,69.17,19.78,80.87
				c13.49,34.55,34.02,45.22,53.41,42.58"/>
			
				<linearGradient id="SVGID_00000049208672069007565400000014266876582002204045_" gradientUnits="userSpaceOnUse" x1="490.63" y1="679.5685" x2="490.63" y2="396.2993">
				<stop  offset="0.0332" style="stop-color:#3C7CE1"/>
				<stop  offset="0.1315" style="stop-color:#67ADEF"/>
				<stop  offset="0.961" style="stop-color:#00FFFF"/>
			</linearGradient>
			
				<path style="fill:none;stroke:url(#SVGID_00000049208672069007565400000014266876582002204045_);stroke-width:2.8991;stroke-miterlimit:10;" d="
				M492.37,397.75c-22.81,1.59-42.4,17.7-43.99,62.41c-0.55,15.54,1.53,45.84,8.71,86.96c7.26,41.55,15.66,71.01,21.53,85.58
				c15.14,37.63,36.09,47.82,55.59,44.98"/>
			
				<linearGradient id="SVGID_00000013905157523849589800000007531910084586203274_" gradientUnits="userSpaceOnUse" x1="502.7646" y1="684.7838" x2="502.7646" y2="386.5083">
				<stop  offset="0.0332" style="stop-color:#3C7CE1"/>
				<stop  offset="0.1315" style="stop-color:#67ADEF"/>
				<stop  offset="0.961" style="stop-color:#00FFFF"/>
			</linearGradient>
			
				<path style="fill:none;stroke:url(#SVGID_00000013905157523849589800000007531910084586203274_);stroke-width:2.8991;stroke-miterlimit:10;" d="
				M505.72,387.96c-23.37,1.18-44.3,16.29-46.48,65.47c-0.83,18.65,1.32,49.85,8.65,91.81c7.43,42.48,16.1,72.87,23.28,90.29
				c16.39,39.76,37.24,49.92,56.55,47.47"/>
			
				<linearGradient id="SVGID_00000078735799766413094470000002511548558959622582_" gradientUnits="userSpaceOnUse" x1="512.6729" y1="690.1236" x2="512.6729" y2="376.8491">
				<stop  offset="0.0332" style="stop-color:#3C7CE1"/>
				<stop  offset="0.1315" style="stop-color:#67ADEF"/>
				<stop  offset="0.961" style="stop-color:#00FFFF"/>
			</linearGradient>
			
				<path style="fill:none;stroke:url(#SVGID_00000078735799766413094470000002511548558959622582_);stroke-width:2.8991;stroke-miterlimit:10;" d="
				M519.58,378.3c-24.04,0-46.71,14.73-49.47,68.4c-1.12,21.75,1.11,53.85,8.59,96.66c7.59,43.42,16.51,74.73,25.03,94.99
				c16.08,38.26,35.39,50.19,53.23,50.33"/>
			
				<linearGradient id="SVGID_00000100370804081850172540000012602802730483588507_" gradientUnits="userSpaceOnUse" x1="524.4561" y1="696.2946" x2="524.4561" y2="366.6573">
				<stop  offset="0.0332" style="stop-color:#3C7CE1"/>
				<stop  offset="0.1315" style="stop-color:#67ADEF"/>
				<stop  offset="0.961" style="stop-color:#00FFFF"/>
			</linearGradient>
			
				<path style="fill:none;stroke:url(#SVGID_00000100370804081850172540000012602802730483588507_);stroke-width:2.8991;stroke-miterlimit:10;" d="
				M532.57,368.24c-33.47-2.44-68.56,27.42-43.07,173.23c20.94,119.8,52.1,151.96,80.04,153.37"/>
		</g>
	</g>
	<g class="st32">
		
			<linearGradient id="SVGID_00000047058569705724132000000011429015679736734138_" gradientUnits="userSpaceOnUse" x1="532.2328" y1="393.1559" x2="671.2587" y2="393.1559">
			<stop  offset="0.1465" style="stop-color:#FFFFFF;stop-opacity:0"/>
			<stop  offset="0.288" style="stop-color:#FFFFFF;stop-opacity:0.9"/>
			<stop  offset="0.45" style="stop-color:#FFFFFF;stop-opacity:0.9"/>
			<stop  offset="0.7548" style="stop-color:#FFFFFF;stop-opacity:0"/>
			<stop  offset="0.8998" style="stop-color:#FFFFFF;stop-opacity:0"/>
		</linearGradient>
		
			<path style="fill:none;stroke:url(#SVGID_00000047058569705724132000000011429015679736734138_);stroke-width:2.8991;stroke-miterlimit:10;" d="
			M670.38,418.38c-2.94-2.25-5.75-3.47-8.94-4.63c0,0-23.65-10.67-58.82-23.53s-60.13-19.96-60.13-19.96
			c-3.39-1.1-6.79-1.77-10.15-2.03"/>
		
			<linearGradient id="SVGID_00000160909323071300513590000000267175661037962124_" gradientUnits="userSpaceOnUse" x1="519.256" y1="406.3447" x2="674.7189" y2="406.3447">
			<stop  offset="0.1465" style="stop-color:#FFFFFF;stop-opacity:0"/>
			<stop  offset="0.288" style="stop-color:#FFFFFF;stop-opacity:0.9"/>
			<stop  offset="0.45" style="stop-color:#FFFFFF;stop-opacity:0.9"/>
			<stop  offset="0.7548" style="stop-color:#FFFFFF;stop-opacity:0"/>
			<stop  offset="0.8998" style="stop-color:#FFFFFF;stop-opacity:0"/>
		</linearGradient>
		
			<path style="fill:none;stroke:url(#SVGID_00000160909323071300513590000000267175661037962124_);stroke-width:2.8991;stroke-miterlimit:10;" d="
			M673.76,434.76c-3.41-2.99-7.37-5.74-11.86-8.19c-2.75-1.49-27.04-12.89-63.05-26.06c-36.01-13.17-61.94-20.13-65.03-20.77
			c-5.07-1.04-9.94-1.51-14.54-1.45"/>
		
			<linearGradient id="SVGID_00000158728164916362568000000004116941276538359450_" gradientUnits="userSpaceOnUse" x1="505.2573" y1="419.3185" x2="679.2125" y2="419.3185">
			<stop  offset="0.1465" style="stop-color:#FFFFFF;stop-opacity:0"/>
			<stop  offset="0.288" style="stop-color:#FFFFFF;stop-opacity:0.9"/>
			<stop  offset="0.45" style="stop-color:#FFFFFF;stop-opacity:0.9"/>
			<stop  offset="0.7548" style="stop-color:#FFFFFF;stop-opacity:0"/>
			<stop  offset="0.8998" style="stop-color:#FFFFFF;stop-opacity:0"/>
		</linearGradient>
		
			<path style="fill:none;stroke:url(#SVGID_00000158728164916362568000000004116941276538359450_);stroke-width:2.8991;stroke-miterlimit:10;" d="
			M678.2,451.24c-4.19-4.13-9.67-8.32-15.83-11.85c-5.43-3.11-30.44-15.11-67.29-28.58c-36.85-13.47-63.73-20.45-69.93-21.58
			c-7.08-1.29-13.86-1.67-19.79-1.26"/>
		
			<linearGradient id="SVGID_00000072244297824269159580000007267895314583104690_" gradientUnits="userSpaceOnUse" x1="491.8446" y1="432.1634" x2="683.1998" y2="432.1634">
			<stop  offset="0.1465" style="stop-color:#FFFFFF;stop-opacity:0"/>
			<stop  offset="0.288" style="stop-color:#FFFFFF;stop-opacity:0.9"/>
			<stop  offset="0.45" style="stop-color:#FFFFFF;stop-opacity:0.9"/>
			<stop  offset="0.7548" style="stop-color:#FFFFFF;stop-opacity:0"/>
			<stop  offset="0.8998" style="stop-color:#FFFFFF;stop-opacity:0"/>
		</linearGradient>
		
			<path style="fill:none;stroke:url(#SVGID_00000072244297824269159580000007267895314583104690_);stroke-width:2.8991;stroke-miterlimit:10;" d="
			M682.14,467.47c-4.82-5.2-11.46-10.59-19.31-15.27c-8.06-4.81-33.83-17.32-71.52-31.1c-37.69-13.78-65.51-20.84-74.83-22.38
			c-9.19-1.52-17.34-1.75-24.46-0.93"/>
		
			<linearGradient id="SVGID_00000051367155095290305950000016180213305328995735_" gradientUnits="userSpaceOnUse" x1="479.2041" y1="444.8258" x2="686.6674" y2="444.8258">
			<stop  offset="0.1465" style="stop-color:#FFFFFF;stop-opacity:0"/>
			<stop  offset="0.288" style="stop-color:#FFFFFF;stop-opacity:0.9"/>
			<stop  offset="0.45" style="stop-color:#FFFFFF;stop-opacity:0.9"/>
			<stop  offset="0.7548" style="stop-color:#FFFFFF;stop-opacity:0"/>
			<stop  offset="0.8998" style="stop-color:#FFFFFF;stop-opacity:0"/>
		</linearGradient>
		
			<path style="fill:none;stroke:url(#SVGID_00000051367155095290305950000016180213305328995735_);stroke-width:2.8991;stroke-miterlimit:10;" d="
			M685.57,483.34c-5.34-6.25-12.66-12.41-22.28-18.32c-10.66-6.55-37.23-19.54-75.76-33.63c-38.52-14.09-67.28-21.3-79.73-23.19
			c-10.96-1.67-20.38-1.77-28.39-0.64"/>
		
			<linearGradient id="SVGID_00000121250287809715627550000002928759585662217089_" gradientUnits="userSpaceOnUse" x1="461.4676" y1="459.0715" x2="692.5893" y2="459.0715">
			<stop  offset="0.1465" style="stop-color:#FFFFFF;stop-opacity:0"/>
			<stop  offset="0.288" style="stop-color:#FFFFFF;stop-opacity:0.9"/>
			<stop  offset="0.45" style="stop-color:#FFFFFF;stop-opacity:0.9"/>
			<stop  offset="0.7548" style="stop-color:#FFFFFF;stop-opacity:0"/>
			<stop  offset="0.8998" style="stop-color:#FFFFFF;stop-opacity:0"/>
		</linearGradient>
		
			<path style="fill:none;stroke:url(#SVGID_00000121250287809715627550000002928759585662217089_);stroke-width:2.8991;stroke-miterlimit:10;" d="
			M691.41,502.42c-5.78-8.09-14.89-16.55-27.66-24.58c-13.24-8.33-40.62-21.76-79.99-36.15c-39.36-14.39-69.04-21.79-84.63-24
			c-15.17-2.15-27.61-1.64-37.32,0.7"/>
		
			<linearGradient id="SVGID_00000032640029660352288700000010725772595167166094_" gradientUnits="userSpaceOnUse" x1="450.8712" y1="470.7392" x2="694.4276" y2="470.7392">
			<stop  offset="0.1465" style="stop-color:#FFFFFF;stop-opacity:0"/>
			<stop  offset="0.288" style="stop-color:#FFFFFF;stop-opacity:0.9"/>
			<stop  offset="0.45" style="stop-color:#FFFFFF;stop-opacity:0.9"/>
			<stop  offset="0.7548" style="stop-color:#FFFFFF;stop-opacity:0"/>
			<stop  offset="0.8998" style="stop-color:#FFFFFF;stop-opacity:0"/>
		</linearGradient>
		
			<path style="fill:none;stroke:url(#SVGID_00000032640029660352288700000010725772595167166094_);stroke-width:2.8991;stroke-miterlimit:10;" d="
			M693.26,516.36c-6.11-8.35-15.57-17.05-29.05-25.69c-15.8-10.13-44.02-23.97-84.23-38.68c-40.2-14.7-70.8-22.32-89.53-24.81
			c-16.21-2.16-29.1-1.87-39.25,0.48"/>
		
			<linearGradient id="SVGID_00000099640566464308969060000012222671240443392668_" gradientUnits="userSpaceOnUse" x1="437.8873" y1="483.3909" x2="697.8004" y2="483.3909">
			<stop  offset="0.1465" style="stop-color:#FFFFFF;stop-opacity:0"/>
			<stop  offset="0.288" style="stop-color:#FFFFFF;stop-opacity:0.9"/>
			<stop  offset="0.45" style="stop-color:#FFFFFF;stop-opacity:0.9"/>
			<stop  offset="0.7548" style="stop-color:#FFFFFF;stop-opacity:0"/>
			<stop  offset="0.8998" style="stop-color:#FFFFFF;stop-opacity:0"/>
		</linearGradient>
		
			<path style="fill:none;stroke:url(#SVGID_00000099640566464308969060000012222671240443392668_);stroke-width:2.8991;stroke-miterlimit:10;" d="
			M696.61,532.41c-6.38-9.26-16.61-18.95-31.94-28.93c-18.35-11.95-47.41-26.19-88.46-41.2c-41.04-15.01-72.56-22.86-94.43-25.62
			c-18.27-2.3-32.64-2.28-43.53,0.48"/>
		
			<linearGradient id="SVGID_00000049223338472528337290000007163509337061660584_" gradientUnits="userSpaceOnUse" x1="424.7781" y1="495.82" x2="700.8388" y2="495.82">
			<stop  offset="0.1465" style="stop-color:#FFFFFF;stop-opacity:0"/>
			<stop  offset="0.288" style="stop-color:#FFFFFF;stop-opacity:0.9"/>
			<stop  offset="0.45" style="stop-color:#FFFFFF;stop-opacity:0.9"/>
			<stop  offset="0.7548" style="stop-color:#FFFFFF;stop-opacity:0"/>
			<stop  offset="0.8998" style="stop-color:#FFFFFF;stop-opacity:0"/>
		</linearGradient>
		
			<path style="fill:none;stroke:url(#SVGID_00000049223338472528337290000007163509337061660584_);stroke-width:2.8991;stroke-miterlimit:10;" d="
			M699.63,548.01c-14.88-22.34-51.48-47.74-127.2-75.43c-76.58-28-121.5-32.5-147.26-25.2"/>
	</g>
</g>
</svg>
